<svg xmlns="http://www.w3.org/2000/svg" viewBox="0 0 120 120"><defs><style>.cls-1{fill:#888}</style></defs><g id="Layer_2" data-name="Layer 2"><path class="cls-1" d="M60 119.5A59.5 59.5 0 11119.5 60 59.57 59.57 0 0160 119.5zm0-114A54.5 54.5 0 10114.5 60 54.56 54.56 0 0060 5.5z"/><path class="cls-1" d="M72.85 19.53H47.28c-4.09 0-6.94 2.73-6.94 6.79v67.36c0 4.05 2.85 6.78 6.94 6.78h25.57a6.49 6.49 0 006.81-6.78V26.32a6.46 6.46 0 00-6.81-6.79zm-16.32 4.63h6.94v1.16h-6.94zm3.47 74a2.31 2.31 0 112.31-2.31 2.31 2.31 0 01-2.31 2.3zm17.34-6.94H42.66V28.78h34.68z" id="iPhone_SE" data-name="iPhone SE"/></g></svg>